# Blender v2.82 (sub 7) OBJ File: 'tornado.blend'
# www.blender.org
mtllib tornado1.mtl
o Cube_Cube.001
v -0.654537 -0.657367 0.655507
v -0.654537 0.661687 0.655507
v -1.000000 -1.000000 -0.652537
v -1.000000 1.000000 -0.652537
v 0.664517 -0.657367 0.655507
v 0.664517 0.661687 0.655507
v 1.000000 -1.000000 -0.652537
v 1.000000 1.000000 -0.652537
v -0.823939 0.014698 0.687610
v -1.256854 0.019010 -0.603861
v 1.393323 -0.011564 -0.661990
v 0.923924 -0.005467 0.649272
v -0.067603 -1.224055 -0.628878
v 0.048385 1.267372 -0.645631
v -0.039596 -0.805137 0.671111
v 0.036901 0.838027 0.660062
vt 0.254466 0.000000
vt 0.500016 0.018242
vt 0.500016 0.507350
vt 0.254466 0.489107
vt 0.265965 0.507350
vt 0.464589 0.510893
vt 0.464589 1.000000
vt 0.265966 0.996457
vt 0.766088 0.489107
vt 0.500016 0.497974
vt 0.500016 0.008867
vt 0.766088 0.000000
vt 0.761295 0.987082
vt 0.500016 0.989670
vt 0.500016 0.500562
vt 0.761295 0.497974
vt 0.000000 0.510893
vt 0.000000 1.000000
vt 0.000000 0.018242
vt 0.000000 0.507350
vt 1.000000 0.989670
vt 1.000000 0.500562
vt 0.999984 0.497974
vt 0.999984 0.008867
vn -0.9481 0.0042 0.3178
vn -0.6596 0.6669 0.3467
vn -0.6518 0.6746 0.3466
vn -0.9481 0.0050 0.3178
vn 0.9415 -0.0042 0.3370
vn 0.6377 0.6901 0.3421
vn 0.6283 0.6988 0.3419
vn 0.9415 -0.0029 0.3370
vn -0.0165 -0.9515 0.3070
vn 0.6169 -0.7080 0.3437
vn 0.5985 -0.7239 0.3431
vn -0.0117 -0.9517 0.3069
vn 0.0123 0.9498 0.3124
vn 0.0107 0.9499 0.3124
vn -0.6580 -0.6674 0.3486
vn -0.6543 -0.6711 0.3486
usemtl tornado
s 1
f 9/1/1 2/2/2 4/3/3 10/4/4
f 11/5/5 8/6/6 6/7/7 12/8/8
f 13/9/9 7/10/10 5/11/11 15/12/12
f 14/13/13 4/14/3 2/15/2 16/16/14
f 7/17/10 11/5/5 12/8/8 5/18/11
f 1/19/15 9/1/1 10/4/4 3/20/16
f 8/21/6 14/13/13 16/16/14 6/22/7
f 3/23/16 13/9/9 15/12/12 1/24/15
